<?xml version="1.0" standalone="no"?>
<!DOCTYPE svg PUBLIC "-//W3C//DTD SVG 20010904//EN"
 "http://www.w3.org/TR/2001/REC-SVG-20010904/DTD/svg10.dtd">
<svg version="1.0" xmlns="http://www.w3.org/2000/svg"
 width="130.000000pt" height="130.000000pt" viewBox="0 0 130.000000 130.000000"
 preserveAspectRatio="xMidYMid meet">

<g transform="translate(0.000000,130.000000) scale(0.100000,-0.100000)"
fill="#000000" stroke="none">
<path d="M0 650 l0 -650 650 0 650 0 0 650 0 650 -650 0 -650 0 0 -650z m849
379 l211 -122 0 -247 0 -247 -117 -68 c-65 -37 -137 -79 -161 -93 l-43 -25 3
59 3 59 105 61 105 60 0 194 0 194 -162 93 -162 93 -165 -96 -166 -96 0 -188
0 -188 113 -65 112 -64 3 -43 c2 -23 1 -48 -2 -56 -4 -9 -51 13 -166 79 l-160
91 0 246 0 246 213 122 c116 67 215 122 219 122 3 0 101 -55 217 -121z m-172
-125 c16 -25 16 -28 0 -56 -12 -20 -17 -52 -17 -100 l0 -70 52 30 c34 19 55
38 58 53 3 13 18 30 32 38 23 13 29 13 52 -2 56 -37 18 -114 -50 -102 -21 4
-44 -4 -84 -28 l-55 -33 -3 -72 c-2 -40 0 -72 4 -72 15 0 104 63 104 73 0 18
32 47 53 47 27 0 57 -28 57 -52 0 -41 -19 -60 -59 -57 -30 2 -51 -5 -99 -36
l-62 -40 0 -111 c0 -117 -8 -141 -42 -123 -16 9 -18 23 -18 123 l0 113 -55 37
c-31 20 -67 36 -83 36 -16 0 -37 9 -47 20 -41 46 29 116 75 75 11 -10 20 -26
20 -35 0 -14 67 -70 85 -70 3 0 5 33 5 74 l0 74 -50 32 c-39 25 -56 30 -79 25
-69 -15 -99 81 -33 106 28 11 72 -11 72 -36 0 -13 65 -65 82 -65 15 0 8 116
-8 149 -14 29 -14 34 0 56 23 35 70 34 93 -1z"/>
</g>
</svg>
