<svg width="100" height="36" viewBox="0 0 100 36" fill="none" xmlns="http://www.w3.org/2000/svg">
<path d="M3.54968 11.2796L15.5 4.42432L27.4503 11.2796V24.9901L19.5571 29.518L19.5145 33.6149L31 27.0263V9.24332L15.5 0.351807L0 9.24332V27.0263L11.6251 33.695L11.6672 29.6467L3.54968 24.9901V11.2796Z" fill="white"/>
<path d="M16.4074 12.1272C17.0533 11.7866 17.4932 11.1114 17.4932 10.3342C17.4932 9.21391 16.5791 8.3057 15.4515 8.3057C14.324 8.3057 13.4099 9.21391 13.4099 10.3342C13.4099 10.9854 13.7187 11.5649 14.1987 11.9361V16.995L11.2244 15.035C11.2275 14.9895 11.2291 14.9437 11.2291 14.8975C11.2291 13.7771 10.315 12.8689 9.18741 12.8689C8.05984 12.8689 7.14576 13.7771 7.14576 14.8975C7.14576 16.0178 8.05984 16.926 9.18741 16.926C9.691 16.926 10.152 16.7449 10.508 16.4446L14.3669 18.9352C14.4189 20.271 14.4189 22.9602 14.4189 24.5767L11.188 22.4039C11.2149 22.2725 11.2291 22.1365 11.2291 21.9972C11.2291 20.8769 10.315 19.9687 9.18741 19.9687C8.05984 19.9687 7.14576 20.8769 7.14576 21.9972C7.14576 23.1175 8.05984 24.0258 9.18741 24.0258C9.55274 24.0258 9.89567 23.9304 10.1924 23.7634L14.3669 26.5286C14.3669 26.5286 14.3998 33.7706 14.3998 34.6754L15.5453 35.3518L16.61 34.6475V26.5439L21.138 23.5447C21.4939 23.8447 21.9548 24.0258 22.4582 24.0258C23.5857 24.0258 24.4998 23.1175 24.4998 21.9972C24.4998 20.8769 23.5857 19.9687 22.4582 19.9687C21.334 19.9687 20.422 20.8714 20.4165 21.987L16.61 24.5084C16.61 22.9076 16.61 20.7711 16.662 18.9352L21.2415 16.5267C21.5813 16.7776 22.0023 16.926 22.4582 16.926C23.5857 16.926 24.4998 16.0178 24.4998 14.8975C24.4998 13.7771 23.5857 12.8689 22.4582 12.8689C21.3306 12.8689 20.4165 13.7771 20.4165 14.8975C20.4165 15.0471 20.4328 15.1929 20.4637 15.3333L16.4074 17.4357V12.1272Z" fill="white"/>
<path fill-rule="evenodd" clip-rule="evenodd" d="M50.0208 24.4599C47.7612 24.4599 45.6762 23.712 44 22.4502V31.759H40V13.759H40.0227C40.3723 8.54181 44.715 4.41821 50.0208 4.41821C55.5552 4.41821 60.0417 8.90469 60.0417 14.439C60.0417 19.9734 55.5552 24.4599 50.0208 24.4599ZM50.0208 8.41821C46.6956 8.41821 44 11.1138 44 14.439C44 17.7642 46.6956 20.4599 50.0208 20.4599C53.346 20.4599 56.0417 17.7642 56.0417 14.439C56.0417 11.1138 53.346 8.41821 50.0208 8.41821Z" fill="white"/>
<path d="M59.248 7.55058L68.1783 23.4531L68.2007 32.0571L72.2007 32.0576L72.3584 23.4531L79.5636 7.47031L75.9769 5.69941L70.2007 19.0576L62.7508 5.61914L59.248 7.55058Z" fill="white"/>
<path fill-rule="evenodd" clip-rule="evenodd" d="M99 31.759V15.6997C99.0276 15.3968 99.0417 15.09 99.0417 14.7799C99.0417 14.4698 99.0276 14.1629 99 13.86V13.759H98.9903C98.4789 8.70417 94.2106 4.75903 89.0208 4.75903C83.4865 4.75903 79 9.24551 79 14.7799C79 20.3142 83.4865 24.8007 89.0208 24.8007C91.2618 24.8007 93.3309 24.0651 95 22.8222V31.759H99ZM89.0208 8.75903C92.1052 8.75903 94.6478 11.0782 95 14.0679V15.4918C94.6478 18.4815 92.1052 20.8007 89.0208 20.8007C85.6956 20.8007 83 18.1051 83 14.7799C83 11.4546 85.6956 8.75903 89.0208 8.75903Z" fill="white"/>
</svg>
